<?xml version="1.0" encoding="utf-8"?>
<!-- Generator: Adobe Illustrator 23.0.1, SVG Export Plug-In . SVG Version: 6.00 Build 0)  -->
<svg version="1.1" id="Layer_1" focusable="false" xmlns="http://www.w3.org/2000/svg" xmlns:xlink="http://www.w3.org/1999/xlink"
	 x="0px" y="0px" viewBox="0 0 830.6 200.4" style="enable-background:new 0 0 830.6 200.4;" xml:space="preserve">
<title>Recette</title>
<g>
	<defs>
		<path id="SVGID_1_" d="M738.9,40c-1.9,0.8-3.4,1.7-4.3,2.8c-1,1.1-2,2.5-3.1,4.4c-0.9,1.3-1.5,2.5-1.9,3.6
			c-0.4,1.1-0.6,2.3-0.5,3.4c0,1.6,0.4,3.1,1.2,4.4c0.8,1.3,1.8,2.4,3,3.3c1.2,0.9,2.6,1.4,4.1,1.7c1.5,0.3,3,0.2,4.6-0.3
			c2.2-0.7,4.2-2.2,6.2-4.5c2-2.3,3.3-5,4.1-8.1c0.3-2.2,0.1-4-0.6-5.6c-0.7-1.6-1.8-2.9-3.1-3.8c-1.4-0.9-2.9-1.5-4.7-1.7
			c-0.5-0.1-1-0.1-1.4-0.1C741.1,39.4,740,39.6,738.9,40 M665.5,138.2c0.1-0.2,0.3-0.6,0.5-1.2c0.2-0.6,0.4-1.3,0.6-2.1
			c0.2-0.8,0.4-1.4,0.7-1.9l1.3-3.3l2.4,0.5c-0.1,7.5-1.2,15.1-3.4,22.9c-2.2,7.7-4.5,14.7-7,21.1c-1.2,2.9-2.4,5.4-3.7,7.6
			c-1.3,2.2-2.4,3.9-3.5,5c-1.1,1.1-2,1.7-2.7,1.5c-0.7-0.1-1.1-1-1.2-2.7c0-0.9,0.2-2.3,0.5-4c0.4-1.8,1-4,1.9-6.8
			c2.5-6.6,4.8-13,7-19.1c2.2-6.1,4.4-12.4,6.7-18.9l0,0.2C665.5,137.8,665.4,138.2,665.5,138.2
			C665.5,138.2,665.5,138.2,665.5,138.2 M607.9,129.1c-1.3-0.3-2-1.5-2-3.7c0-1.5,0.4-3.6,1.2-6.2c0.8-2.7,2.3-6.2,4.5-10.5
			c0.8-1.8,1.8-3.8,3-5.8c1.2-2.1,2.6-4.3,4.2-6.7c0.6,4,1.7,7.6,3.2,10.7c1.5,3.1,3.2,5.8,5.2,8c-2.5,3-4.9,5.6-7.4,7.9
			c-2.5,2.3-4.7,4-6.8,5.1c-1.6,0.9-3,1.4-4.2,1.4C608.5,129.2,608.2,129.1,607.9,129.1 M752.1,129.3c-0.6-0.1-1.1-0.4-1.7-0.9
			c-0.6-0.5-1-1.2-1.4-2.1c-0.4-0.9-0.5-2.1-0.6-3.4c0-1.4,0.2-2.9,0.8-4.6c0.9-2.5,2.1-5.2,3.6-8.2c1.5-3,3.3-5.9,5.2-8.9
			c1.9-3,3.9-5.8,6-8.6c2.1-2.7,4.3-5.1,6.5-7.1c2.2-2,4.3-3.5,6.4-4.5c2.1-1,4-1.2,5.7-0.6c0.7,0.3,1.1,1,1.2,2
			c0.1,1,0.1,2,0.1,3.1c-0.1,1.1-0.3,2.2-0.6,3.4c-0.3,1.2-0.6,2.3-1,3.2l-3,7.2c-2,4.2-4.2,8.2-6.6,12c-2.4,3.8-4.8,7-7.3,9.8
			c-2.5,2.8-4.9,4.9-7.2,6.4c-2,1.3-3.8,1.9-5.5,1.9C752.6,129.4,752.4,129.4,752.1,129.3 M627.1,92.5c0-2.7,0.4-5.2,1.5-7.5
			c1-2.3,2.7-4.2,4.9-5.8c1.9-0.8,3.6-0.7,5.1,0.3c1.4,1,2.1,3.5,2.1,7.4l0,0.2c-0.5,3.7-1.4,7.1-2.8,10.4c-1.4,3.2-3.1,6.5-5.2,9.7
			C629,102,627.1,97.1,627.1,92.5 M708,19.8c-2.2,1-4,2.6-5.5,4.8c-12.9,21.1-24.3,43.4-34.3,66.9c-1.3,3.1-2.6,6.2-3.9,9.2
			c-0.3,0.2-0.6,0.5-0.9,0.9c-2.1,2.6-4.6,5.1-7.3,7.4c-2.8,2.3-6.5,3.9-11.1,4.5c2.9-4.8,5.1-9.6,6.5-14.5
			c1.5-4.9,1.8-9.3,1.1-13.3c-0.5-2.9-1.4-5.2-2.6-7.2c-1.2-1.9-2.7-3.5-4.4-4.7c-1.7-1.2-3.7-2.1-5.9-2.6c-2.2-0.5-4.4-0.8-6.7-0.8
			h-2.7c-0.9,0-1.8,0.1-2.8,0.3c-3.8,0.6-7.5,2.1-11.1,4.4c-3.7,2.4-7.1,5.4-10.3,8.9c-3.2,3.5-6.1,7.5-8.6,11.8
			c-2.6,4.3-4.5,8.6-5.9,12.8c-1.4,4.3-2.1,8.3-2,11.8c0.1,5.6,1.9,9.8,5.4,12.6c3.5,2.8,7.9,4.2,13,4.2c3,0,6.1-0.5,9.4-1.5
			c3.3-1,6.6-2.4,9.9-4.4c1.9-1.1,3.9-2.6,5.9-4.5c2-1.8,4.1-3.9,6.2-6.2c5.1,0.8,10.4,0,15.9-2.5c0.8-0.4,1.6-0.8,2.4-1.2
			c-6,15.2-11.8,30.6-17.2,46.2c-1,3.2-1.8,6.5-2.5,10c-0.7,3.5-1.1,6.7-1.1,9.7c0,5.8,1,10.1,3.1,12.8c2.1,2.7,4.8,4,7.9,4
			c2.2,0,4.5-0.7,7.2-2.1c2.6-1.4,5-3.3,7.1-5.7c2.6-3.2,4.8-7,6.6-11.4c1.9-4.4,3.4-9,4.6-13.7c1.2-4.7,2.1-9.5,2.7-14.4
			c0.5-4.9,0.8-9.4,0.7-13.8c0-1.5-0.1-3.2-0.3-5.2s-0.4-4.1-0.7-6.4c2.6,1,5.6,0.8,8.8-0.6c3.2-1.4,6.5-3.5,9.7-6.2
			c1.6-1.4,3.3-2.9,4.8-4.4c-0.5,2.2-0.9,4.3-1.2,6.3c-0.3,1.7-0.3,3.4-0.1,5.1c0.3,1.7,0.7,3.2,1.5,4.6c0.7,1.4,1.7,2.7,3,3.7
			c1.3,1,2.8,1.8,4.7,2.2c4.2,0.5,8.4-0.5,12.5-2.8c4.1-2.3,7.9-5.4,11.6-9.2c0.5,6.4,4.7,10.4,12.5,12c5.4,0.6,10.4-0.3,15.1-2.7
			c4.7-2.4,9.1-5.8,13.3-10.3c0.5,3.4,1.5,6.3,3.1,8.6c1.5,2.3,3.7,3.8,6.4,4.4c4.2,0.5,8.4-0.5,12.5-2.9c4.1-2.4,8.1-5.5,11.9-9.4
			c3.8-3.9,7.4-8.1,10.8-12.8c3.4-4.6,6.4-8.9,9.1-12.9l0,0.2c0.7-1.3,1.1-2.5,1.1-3.6v-0.1c0-0.4-0.1-0.8-0.1-1.1
			c-0.4-1.4-1.2-2.1-2.4-2.1c-1.4,0-2.7,0.9-4.1,2.6h0.2c-0.7,0.9-1.4,1.8-2.1,2.6c-0.7,0.8-1.4,1.7-2.1,2.6
			c-2.9,3.8-5.9,7.6-9,11.5c-3.1,3.9-6.4,7.3-9.8,10.3c-6.7,5.8-10.2,6.6-10.2,2.4c0-0.7,0.2-1.7,0.7-3.2c0.5-1.4,1.1-3,1.9-4.7
			c1.1-2.7,2.5-5.8,4.2-9.2c1.7-3.4,3.4-6.7,5.1-9.9c1.7-3.3,3.3-6.2,4.9-8.8c1.6-2.6,2.8-4.6,3.8-5.8c0.9-1,1.5-2,1.7-2.8
			c0.3-0.9,0.4-1.7,0.4-2.7c0-1.9-1-3.6-2.8-5.1c-1.9-1.4-4-2.1-6.4-2.1c-1.4,0-2.8,0.3-4.2,0.9c-1.4,0.6-2.7,1.5-3.8,2.7l0,0.2
			l-1.7,1.7c-1-1-2.3-2.1-3.8-3.1c-1.5-1-2.8-1.7-4-2.1c-4.1,0.1-8.2,1-12.4,2.7c-4.1,1.7-8.1,3.9-12,6.7c-3.9,2.8-7.5,6-11,9.6
			c-3.4,3.6-6.4,7.4-9,11.3c-2,3.1-3.7,6.2-5,9.4c-1.6,2-3.2,3.9-4.9,5.7c-2.1,2.3-4.4,4.5-6.7,6.5c-2.4,2-4.8,3.7-7.3,5
			c-1,0.3-1.5-0.3-1.3-1.9c0.1-1.6,0.7-3.8,1.7-6.5c1-2.7,2.2-5.8,3.7-9.3c1.5-3.5,3.1-6.9,4.8-10.4c1.7-3.4,3.4-6.6,5.1-9.5
			c1.7-2.9,3.1-5.2,4.3-6.9c1.3-1.8,2-3.6,2-5.5c0-1.9-1-3.6-2.8-5.1c-1.9-1.4-3.9-2.1-6.2-2.1c-1.5,0-2.9,0.3-4.4,0.9
			c-1.4,0.6-2.7,1.5-3.8,2.7c-1.5,1.6-3.2,4.2-5.3,7.7c-2.1,3.5-4.1,7.6-6,12.1c-0.3,0.6-0.5,1.2-0.8,1.8c-1.2,1.6-3,3.9-5.4,7
			c-2.5,3.1-5.1,6.2-8,9.2c-2.9,3-5.7,5.4-8.5,7.4c-2.8,1.9-5.3,2.5-7.3,1.7l0,0.2c-1.3-0.5-2-1.1-2.2-1.8c-0.2-0.7-0.3-1.6-0.3-2.5
			l0-1.5c5.9-13.5,12.6-27.1,20-40.9c7.4-13.8,14.7-27.2,21.9-40.1c0.8-1.3,1.6-2.7,2.5-4.2c0.9-1.5,1.7-2.9,2.3-4.2
			c1.2-2.5,1.1-4.5-0.4-5.8c-1.5-1.4-3.5-2.1-5.9-2.1C712.5,18.3,710.2,18.8,708,19.8 M69.5,1.5c-3.9,0.2-7.9,0.6-12,1.1
			c-4.1,0.5-8.3,1.1-12.6,1.6c-5.4,0.6-10.6,1.1-15.7,1.7c-5.1,0.6-9.9,0.9-14.4,0.9c-3.3,0-6.2-0.2-8.7-0.5c-1.6,0.2-2.3,1-2.4,2.3
			v0.1c0,1.4,0.4,2.9,1.3,4.5c0.8,1.7,1.9,3.2,3.2,4.7c1.3,1.5,2.8,2.7,4.4,3.8c1.6,1,3.2,1.5,4.8,1.5c5.4,0,10.3-0.6,14.7-1.7
			c4.4-1.1,8.8-2.4,13.1-3.8c4-1.3,8.1-2.4,12.3-3.4c4.2-1,9-1.6,14.3-1.9c5.5-0.2,9.3,0.2,11.5,1.3c2.2,1.1,3.3,2.9,3.3,5.6
			c0,1.7-0.4,3.9-1.4,6.6c-1,2.7-2.2,5.9-3.8,9.7c-3.5,8.6-7,16.7-10.6,24.3c-3.6,7.6-7.2,15-10.8,22.1c-3.6,7.1-7.3,13.9-10.9,20.6
			c-3.6,6.7-7.4,13.4-11.1,20.1l-8.6,15.6l0.2-0.2c-0.3,1.1,0.1,2.1,1.3,3c1.2,0.9,2.8,1.6,4.8,2.1c2,0.6,4.2,1,6.4,1.2
			c2.3,0.2,4.3,0.2,6.2-0.2h5.8c4-4.6,8-9.4,12-14.5c4-5.1,7.8-10.2,11.6-15.2c3.8-5.1,7.5-10.1,11-15.1c3.6-5,7-9.7,10.2-14.3
			c8-11.2,15.7-21.6,23-31.2c7.3-9.6,14.3-17.5,21.1-23.7c4.5-4,8.2-6.1,11-6.3c2.8-0.2,4.3,1,4.3,3.6c0,0.9-0.3,2.1-1,3.5
			c-0.7,1.4-1.6,3.1-2.8,4.9c-6.2,9-12.1,18.2-17.7,27.6c-5.6,9.4-10.8,18.5-15.6,27.6c-4.8,9-9.1,17.7-13,25.9
			c-3.9,8.3-7.1,15.8-9.7,22.7h0.2c-0.3,0.8,0,1.5,1,2.2c1,0.7,2.3,1.3,4,1.8c1.7,0.5,3.5,0.9,5.5,1.2c2,0.3,4,0.4,5.9,0.4
			c1.9,0,3.6-0.2,5.1-0.5c1.5-0.3,2.3-1,2.5-1.9l1-3.9c6.2-11,12.7-21.7,19.6-32.2c6.8-10.5,13.9-20.5,21.1-29.9
			c7.3-9.4,14.7-18.1,22.2-26c7.6-7.9,15.2-14.8,22.8-20.6c4.3-3.3,7.6-5.1,9.8-5.4c2.3-0.3,3.4,0.5,3.5,2.5c0,1.7-1.6,4.9-4.8,9.6
			c-4.8,6.5-9.9,13.5-15.2,21c-5.3,7.5-10.2,15-14.7,22.7c-4.4,7.6-8.1,15.1-11,22.5c-2.9,7.4-4.3,14.2-4.2,20.5
			c0.1,7.3,2.7,13.6,7.9,18.8c1.6,1.3,3.5,2.2,5.5,2.7c2.1,0.6,4.2,0.9,6.5,0.9c1.7,0,3.4-0.1,5.1-0.4c1.7-0.3,3.2-0.7,4.6-1.2
			c1.4-0.5,2.5-1.1,3.3-1.8c0.8-0.7,1.3-1.4,1.2-2.1c-2.3-3-4-6.2-5.1-9.6c-1.1-3.4-1.7-6.8-1.7-10.1c-0.1-5.1,0.8-10.4,2.6-15.7
			c1.8-5.4,4.2-10.9,7.2-16.5c3-5.6,6.4-11.4,10.2-17.1c3.8-5.8,7.8-11.6,11.8-17.5c3.1-4.5,6.2-8.9,9.2-13.3
			c3-4.4,5.9-8.8,8.7-13.3c0.9-1.6,1.6-3.1,2.1-4.5c0.5-1.4,0.7-2.8,0.7-4c-0.1-3.3-1.7-5.8-5-7.6c-3.3-1.8-7.1-2.7-11.6-2.7
			c-3.2,0-6.4,0.4-9.6,1.3c-3.2,0.9-6.1,2.2-8.8,4c-11.4,7.5-21.7,16.1-30.9,25.7c-9.2,9.6-17.8,19.3-25.9,29.1l-2.3-1.5
			c3.2-5.5,6.6-10.9,10.1-16.2c3.5-5.3,7-10.7,10.6-16.2l5-7.5c1-1.7,1.8-3.3,2.3-4.6c0.5-1.4,0.8-2.7,0.8-3.9
			c0-1.7-0.6-3.3-1.6-4.6c-1-1.4-2.5-2.5-4.3-3.5c-1.8-1-3.9-1.7-6.2-2.1c-2.4-0.5-4.8-0.7-7.3-0.7c-3,0-6,0.3-9,1
			c-3,0.7-5.8,1.7-8.4,3.1c-3,1.7-6.1,3.8-9.2,6.2c-3.1,2.5-6.2,5.1-9.2,8c-3,2.9-6,5.8-8.9,9c-2.9,3.1-5.7,6.2-8.4,9.3
			c-4.3,5-8.6,10.6-13.1,16.7c-4.5,6.1-8.9,12.5-13.3,19.3l-2.4-1.5c3.2-6.4,6.4-13,9.5-19.9c3.1-6.8,5.9-13.9,8.4-21.1
			c1.4-4.1,2.1-7.9,2-11.5c-0.1-4.2-1.1-8-3.1-11.2c-2-3.3-4.6-5.9-7.9-8c-3.3-2.1-7.1-3.6-11.5-4.5c-3.6-0.8-7.3-1.2-11.2-1.2
			C71.3,1.4,70.4,1.4,69.5,1.5 M234.5,129.3c-0.6-0.1-1.2-0.4-1.7-0.9c-0.6-0.5-1-1.2-1.4-2.1c-0.4-0.9-0.6-2.1-0.6-3.4
			c0-1.4,0.2-2.9,0.8-4.6c0.9-2.5,2.1-5.2,3.6-8.2c1.5-3,3.3-5.9,5.2-8.9c1.9-3,3.9-5.8,6-8.6c2.1-2.7,4.3-5.1,6.5-7.1
			c2.2-2,4.3-3.5,6.4-4.5c2.1-1,4-1.2,5.7-0.6c0.7,0.3,1.1,1,1.2,2c0.1,1,0.1,2,0.1,3.1c-0.1,1.1-0.3,2.2-0.6,3.4
			c-0.3,1.2-0.6,2.3-1,3.2l-3,7.2c-2,4.2-4.2,8.2-6.6,12c-2.4,3.8-4.8,7-7.3,9.8c-2.5,2.8-4.9,4.9-7.2,6.4c-2,1.3-3.8,1.9-5.5,1.9
			C235,129.4,234.8,129.4,234.5,129.3 M411.2,129.3c-0.6-0.1-1.1-0.4-1.7-0.9c-0.6-0.5-1-1.2-1.4-2.1c-0.4-0.9-0.5-2.1-0.6-3.4
			c0-1.4,0.2-2.9,0.8-4.6c0.9-2.5,2.1-5.2,3.6-8.2c1.5-3,3.3-5.9,5.2-8.9c1.9-3,3.9-5.8,6-8.6c2.1-2.7,4.3-5.1,6.5-7.1
			c2.2-2,4.3-3.5,6.4-4.5c2.1-1,4-1.2,5.7-0.6c0.7,0.3,1.1,1,1.2,2c0.1,1,0.1,2,0.1,3.1c-0.1,1.1-0.3,2.2-0.6,3.4
			c-0.3,1.2-0.6,2.3-1,3.2l-3,7.2c-2,4.2-4.2,8.2-6.6,12c-2.4,3.8-4.8,7-7.3,9.8c-2.5,2.8-4.9,4.9-7.2,6.4c-2,1.3-3.8,1.9-5.5,1.9
			C411.7,129.4,411.4,129.4,411.2,129.3 M446.2,125.1c0-0.7,0.2-1.7,0.7-3.2c0.5-1.4,1.1-3,1.9-4.7c1.1-2.7,2.5-5.8,4.2-9.2
			c1.7-3.4,3.4-6.7,5.1-9.9c1.7-3.3,3.3-6.2,4.9-8.8c1.6-2.6,2.8-4.6,3.8-5.8c0.9-1,1.5-2,1.7-2.8c0.3-0.9,0.4-1.7,0.4-2.7
			c0,0,0-0.1,0-0.1c3.3,3,7.7,6,13.2,8.8c4.9,2.6,10.4,4.7,16.4,6.3c6,1.6,12,3.1,18.2,4.5c4.4,1,8.8,2.1,13.3,3.3
			c4.5,1.1,9,2.6,13.3,4.3c6.6,2.6,11.3,5.2,14.3,7.7c3,2.5,4.5,4.9,4.5,7.2c0,2.6-1.4,5-4.4,7.1c-3,2.1-6.6,3.9-10.9,5.4
			c-4.3,1.5-8.7,2.6-13.3,3.3c-4.6,0.7-8.5,1-11.7,0.8c-3.8-0.2-7.7-0.6-11.7-1.1c-4.1-0.5-8.1-1.4-12.1-2.7c-4-1.3-7.9-3-11.7-5.3
			c-3.8-2.3-7.3-5.3-10.6-9.1c-0.8-0.9-1.9-1.3-3.4-1.1c0,0-0.1,0-0.1,0c1.2-1.4,2.3-2.9,3.4-4.5c3.4-4.6,6.4-8.9,9.1-12.9l0,0.2
			c1-1.8,1.3-3.4,0.9-4.8c-0.4-1.4-1.2-2.1-2.4-2.1c-1.4,0-2.7,0.9-4.1,2.6h0.2c-0.7,0.9-1.4,1.8-2.1,2.6c-0.7,0.8-1.4,1.7-2.1,2.6
			c-2.9,3.8-5.9,7.6-9,11.5c-3.1,3.9-6.4,7.3-9.8,10.3c-3.9,3.4-6.7,5.1-8.4,5.1C446.8,127.7,446.2,126.8,446.2,125.1 M579.7,0.6
			c-1,0-2,0.1-2.9,0.2c-8.9,0.5-17.9,1.6-27.2,3.3c-9.2,1.8-18.1,4.1-26.7,7c-8.6,2.9-16.8,6.2-24.4,10c-7.6,3.8-14.3,7.8-20,12.2
			c-5.7,4.3-10.2,8.9-13.5,13.6c-3.3,4.7-4.9,9.5-4.8,14.3c0.1,3.5,1.1,6.9,3.2,10.3c-1.2-0.4-2.4-0.7-3.8-0.7
			c-1.4,0-2.8,0.3-4.2,0.9c-1.4,0.6-2.7,1.5-3.8,2.7l0,0.2l-1.7,1.7c-1-1-2.3-2.1-3.8-3.1c-1.5-1-2.8-1.7-4-2.1
			c-4.1,0.1-8.2,1-12.4,2.7c-4.1,1.7-8.1,3.9-12,6.7c-3.9,2.8-7.5,6-11,9.6c-3.4,3.6-6.4,7.4-9,11.3c-2.6,3.9-4.5,7.9-6,12
			c-0.4,1-0.7,2.1-0.9,3.1c-0.5,0.6-1.1,1.3-1.6,1.9c-1.8,2.1-3.5,3.8-5,5c-3.5,3-5.8,3.8-6.8,2.5c-1.1-1.3-0.2-5.4,2.7-12.4
			c0.4-0.9,1-2.1,1.6-3.4c0.6-1.4,1.3-2.7,2.1-3.9c1.1-2.1,2.2-4.3,3.4-6.6c1.2-2.3,2.2-4.7,3.2-7.1c1-2.4,1.8-4.7,2.4-7
			c0.6-2.3,1-4.3,0.9-6.2c0-2.4-0.7-4.2-2-5.5c-2.1-2.2-4.7-3.3-7.9-3.3c-3.8,0-8,1.3-12.6,3.8c-4.6,2.5-9.1,5.6-13.4,9.2
			c0.1-2.3,0-4.3-0.4-6.1c-0.3-1.8-0.9-3.1-1.7-4c-2-1.9-4.7-2.9-8.1-2.9c-3.1,0-6.7,1-10.8,3c-4.1,2-8.2,4.5-12.3,7.6
			c0.3-2.3,0.1-4.3-0.6-6.1c-0.7-1.8-2.1-3.1-4-3.9c-2.9-1-5.6-0.9-8.1,0.5c-2.5,1.4-4.5,3.3-5.8,5.6c-2.3,4.5-4.5,9.1-6.6,14
			c-2.1,4.9-4,9.6-5.7,14.2c-0.3,0.8-0.5,1.5-0.8,2.2c-1.2,1.6-2.4,3.1-3.7,4.7c-3.1,3.9-6.4,7.3-9.8,10.3
			c-6.7,5.8-10.2,6.6-10.2,2.4c0-0.7,0.2-1.7,0.7-3.2c0.5-1.4,1.1-3,1.9-4.7c1.1-2.7,2.5-5.8,4.2-9.2c1.7-3.4,3.4-6.7,5.1-9.9
			c1.7-3.3,3.3-6.2,4.9-8.8c1.5-2.6,2.8-4.6,3.8-5.8c0.9-1,1.5-2,1.7-2.8c0.3-0.9,0.4-1.7,0.4-2.7c0-1.9-1-3.6-2.8-5.1
			c-1.9-1.4-4-2.1-6.4-2.1c-1.4,0-2.8,0.3-4.2,0.9c-1.4,0.6-2.7,1.5-3.8,2.7l0,0.2l-1.7,1.7c-1-1-2.3-2.1-3.8-3.1
			c-1.5-1-2.8-1.7-4-2.1c-4.1,0.1-8.2,1-12.4,2.7c-4.1,1.7-8.2,3.9-12,6.7c-3.9,2.8-7.5,6-11,9.6c-3.4,3.6-6.4,7.4-9,11.3
			c-2.6,3.9-4.5,7.9-6,12c-1.4,4.1-2.1,7.9-2,11.6c0.1,7,4.3,11.3,12.6,13c5.4,0.6,10.4-0.3,15.1-2.7s9.1-5.8,13.3-10.3
			c0.5,3.4,1.5,6.3,3.1,8.6c1.5,2.3,3.7,3.8,6.4,4.4c4.2,0.5,8.4-0.5,12.5-2.9c3.8-2.2,7.6-5.1,11.1-8.6c-0.3,1.1-0.5,2.1-0.7,3
			c-0.2,1-0.1,2,0.5,2.9c0.5,0.9,1.3,1.7,2.2,2.4c0.9,0.7,2,1.2,3.2,1.6c1.2,0.4,2.4,0.6,3.5,0.6c2.7,0,4.5-1.2,5.4-3.6l0,0.2
			c0.4-1.4,1.1-3.3,2-5.8c0.9-2.5,2-5.3,3.3-8.3c1.3-3,2.6-6.2,4.1-9.7c1.5-3.4,3-6.8,4.5-10.1c0.7-1.5,1.5-2.9,2.7-4.4
			c1.1-1.4,2.3-2.8,3.7-4.1c1.3-1.3,2.7-2.5,4.1-3.6c1.4-1.1,2.7-2,3.8-2.7c2.8-1.9,4.8-2.2,6-0.9c1.2,1.4,1.3,3.4,0.3,6.2l-4.3,9.4
			c-2.2,4.8-4.3,9.6-6.3,14.5c-2,4.9-3.7,10-5,15.5c-0.2,1,0,2,0.6,2.8c0.6,0.9,1.5,1.6,2.4,2.3c1,0.7,2.1,1.2,3.4,1.6
			c1.3,0.4,2.5,0.6,3.8,0.6s2.4-0.4,3.5-1.1c1.1-0.7,1.9-1.6,2.4-2.5c0.5-1.6,1.5-4.1,2.8-7.4c1.3-3.4,2.7-6.9,4.1-10.5
			c0.5-1.5,1.3-3,2.1-4.6c0.9-1.6,1.8-3.4,2.8-5.3c0.8-1.3,1.6-2.7,2.5-4.5c0.9-1.7,1.7-3.3,2.5-4.8c1.4-2.2,3.4-4.3,5.8-6.3
			c2.4-2.1,4.6-3.7,6.5-5c2.8-1.9,4.8-2.2,6.1-0.9s1.3,3.4,0.2,6.2l-3.6,8c-1.2,2.5-2.5,5.1-3.8,7.8c-1.3,2.7-2.5,5.3-3.5,8
			c-1,2.6-1.8,5.2-2.4,7.6c-0.6,2.5-0.9,4.7-0.7,6.8c0.5,3.3,2.1,5.6,4.7,7c2.6,1.4,5.5,2.1,8.8,2.1c2.9,0,5.8-0.5,8.8-1.5
			c3-1,5.4-2.1,7-3.3c1.1-1,2.3-2.1,3.5-3.4c1.5,4.5,5.5,7.4,11.9,8.7c5.4,0.6,10.4-0.3,15.1-2.7c4.7-2.4,9.1-5.8,13.3-10.3
			c0.5,3.4,1.5,6.3,3.1,8.6c1.5,2.3,3.7,3.8,6.4,4.4c4.2,0.5,8.4-0.5,12.5-2.9c3.7-2.2,7.3-4.9,10.8-8.3c3.5,4.3,7.7,8,12.5,11.2
			c5,3.3,10.3,5.9,15.7,7.9c5.5,2,10.9,3.5,16.3,4.4c5.4,0.9,10.2,1.4,14.6,1.4c6.2-0.1,12.6-0.9,19.5-2.3c6.8-1.4,13.1-3.5,19-6.3
			c5.8-2.8,10.7-6.2,14.7-10.4c4-4.1,6.2-8.9,6.7-14.4c-0.1-3-1-5.7-2.8-8.3c-1.8-2.6-4.2-4.9-7.1-7.1c-2.9-2.2-6.4-4.2-10.4-6
			c-4-1.8-8.1-3.5-12.4-5c-4.3-1.5-8.7-2.9-13.1-4.2c-4.4-1.3-8.6-2.4-12.6-3.4c-3.7-0.9-7-1.8-10.1-2.7c-3.1-0.9-6-1.9-8.8-3.2
			c-6.9-2.9-11.8-5.8-14.8-9c-3-3.1-4.5-6.4-4.5-9.7c-0.1-3.3,1.3-6.6,4.1-10c2.8-3.4,6.5-6.6,11.2-9.7c4.7-3.1,10.1-6,16.3-8.8
			c6.2-2.8,12.6-5.3,19.2-7.4c6.6-2.2,13.3-4,19.9-5.6c6.6-1.6,12.9-2.7,18.7-3.4c2-0.2,4-0.4,5.9-0.6c1.9-0.2,3.6-0.3,5.2-0.3
			c5.8,0,10,0.8,12.5,2.5c2.5,1.7,3.8,3.8,3.9,6.4c0,2.1-0.7,4.3-2.2,6.8c-1.5,2.5-3.6,5-6.3,7.5c-2.7,2.6-5.9,5.1-9.6,7.6
			c-3.7,2.5-7.8,4.9-12.2,7c-4,1.9-8.6,3.8-13.9,5.6c-5.3,1.8-10.4,3.3-15.2,4.7c-1.1,0.6-1.3,1.6-0.6,3.1c0.7,1.5,1.9,3,3.4,4.5
			c1.6,1.5,3.3,2.9,5.3,4c2,1.1,3.6,1.7,5,1.5c5.3-1.1,10.8-2.7,16.3-4.8c5.5-2.1,10.8-4.5,15.9-7.3c5.1-2.8,9.9-6,14.6-9.7
			c4.6-3.7,8.7-7.7,12.3-12.2c3.5-4.1,5.9-7.9,7.4-11.3c1.5-3.4,2.2-6.4,2.2-9.1c-0.1-3.4-1.2-6.4-3.5-9c-2.3-2.6-5.3-4.6-9.2-6.2
			c-3.9-1.6-8.3-2.8-13.4-3.6c-5.1-0.8-10.5-1.2-16.2-1.2H579.7z"/>
	</defs>
	<use xlink:href="#SVGID_1_"  style="overflow:visible;fill:#67BC46;"/>
	<clipPath id="SVGID_2_">
		<use xlink:href="#SVGID_1_"  style="overflow:visible;"/>
	</clipPath>
</g>
</svg>
